<?xml version="1.0" standalone="no"?>
<!DOCTYPE svg PUBLIC "-//W3C//DTD SVG 20010904//EN"
 "http://www.w3.org/TR/2001/REC-SVG-20010904/DTD/svg10.dtd">
<svg version="1.0" xmlns="http://www.w3.org/2000/svg"
 width="1024.000000pt" height="1024.000000pt" viewBox="0 0 1024.000000 1024.000000"
 preserveAspectRatio="xMidYMid meet">

<g transform="translate(0.000000,1024.000000) scale(0.100000,-0.100000)"
fill="#000000" stroke="none">
<path d="M4424 7520 c-100 -10 -248 -59 -328 -107 -137 -83 -267 -240 -326
-394 -62 -160 -60 -118 -60 -1617 0 -1345 0 -1366 20 -1406 31 -63 612 -834
970 -1287 l60 -77 -133 -6 c-72 -3 -231 -8 -352 -11 -612 -16 -981 -60 -1040
-125 -82 -90 229 -147 995 -181 319 -14 1396 -14 1715 0 801 37 1075 87 989
182 -65 72 -631 129 -1291 129 -163 0 -233 3 -233 11 0 6 33 52 73 103 260
324 370 466 583 751 132 176 272 366 312 421 l72 102 -2 1438 -3 1439 -28 80
c-51 145 -104 231 -202 331 -77 77 -104 98 -185 138 -187 91 -166 89 -890 92
-349 1 -672 -2 -716 -6z m1368 -261 c233 -49 408 -276 408 -531 l0 -78 -1117
2 -1118 3 3 80 c7 178 79 332 205 434 44 35 144 86 187 94 57 10 1380 7 1432
-4z m408 -983 l0 -113 -46 -7 c-26 -3 -528 -6 -1115 -6 l-1069 0 0 120 0 120
1115 0 1115 0 0 -114z m0 -1200 l0 -823 -52 -7 c-109 -13 -105 -14 -234 99
-163 143 -196 160 -304 160 -98 0 -134 -15 -280 -117 -153 -107 -218 -148
-239 -148 -11 0 -81 41 -157 91 -75 50 -171 110 -213 133 -72 39 -80 41 -161
41 -103 0 -131 -14 -265 -132 -169 -148 -159 -143 -279 -127 l-46 7 0 823 0
824 1115 0 1115 0 0 -824z m-1543 -859 c272 -184 350 -216 485 -199 92 12 157
46 333 172 61 44 117 79 125 80 8 0 67 -46 130 -101 149 -132 194 -154 318
-154 50 0 92 -2 92 -3 0 -6 -33 -52 -204 -287 -253 -348 -290 -399 -306 -423
l-15 -22 -85 31 c-138 49 -202 60 -400 66 -212 6 -312 -7 -465 -58 -49 -17
-95 -32 -101 -33 -7 0 -70 80 -141 179 -71 99 -175 242 -231 317 -102 137
-162 226 -162 239 0 3 22 2 49 -3 66 -12 162 4 214 36 23 14 89 68 147 120 58
52 113 95 122 96 10 0 52 -24 95 -53z"/>
<path d="M4365 5312 c-84 -41 -135 -122 -135 -214 0 -67 26 -123 77 -169 105
-95 257 -73 333 48 71 112 41 246 -72 320 -54 36 -145 42 -203 15z"/>
<path d="M5622 5309 c-115 -57 -162 -190 -108 -304 56 -121 189 -169 306 -110
176 89 164 344 -19 421 -50 21 -129 18 -179 -7z"/>
<path d="M4906 4984 c-57 -56 1 -160 108 -194 85 -27 207 11 253 79 28 42 29
71 2 105 -26 33 -62 34 -101 1 -22 -19 -41 -25 -77 -25 -35 0 -56 7 -81 25
-39 28 -81 32 -104 9z"/>
<path d="M3111 6855 c-24 -21 -33 -41 -47 -101 -22 -99 -49 -130 -158 -179
-66 -29 -88 -44 -102 -70 -33 -61 6 -122 96 -150 71 -22 126 -57 144 -94 9
-16 20 -59 26 -97 14 -84 45 -124 98 -124 18 0 42 5 54 11 24 13 48 67 48 111
1 84 72 166 167 194 70 20 113 60 113 104 0 51 -25 76 -103 106 -106 40 -150
87 -171 184 -18 81 -29 100 -63 118 -34 19 -69 14 -102 -13z m119 -329 l56
-53 -57 -54 -58 -54 -60 54 -61 54 58 53 c31 29 59 53 61 54 2 0 30 -24 61
-54z"/>
<path d="M7299 6591 c-20 -16 -25 -31 -29 -93 l-5 -73 -70 -3 c-97 -3 -112 -8
-130 -42 -22 -42 -19 -66 14 -102 28 -32 32 -33 108 -33 l78 0 5 -71 c5 -78
22 -107 66 -118 14 -4 37 0 53 8 38 20 55 64 47 125 l-6 49 81 4 c77 3 82 5
110 36 32 36 36 60 14 101 -18 36 -32 41 -108 41 -34 0 -67 4 -73 8 -7 4 -15
36 -19 71 -5 48 -13 70 -31 88 -28 28 -73 30 -105 4z"/>
<path d="M6976 5743 c-14 -14 -34 -51 -42 -82 -36 -124 -83 -173 -196 -207
-101 -31 -139 -87 -106 -158 15 -34 46 -53 105 -66 107 -24 166 -85 197 -202
26 -99 44 -118 116 -118 48 0 85 32 95 83 30 150 86 213 222 247 52 13 83 50
83 99 0 53 -21 76 -98 105 -127 49 -172 99 -202 223 -16 70 -50 103 -105 103
-32 0 -48 -6 -69 -27z m98 -278 c21 -30 58 -67 82 -82 24 -16 44 -31 44 -35 0
-4 -17 -19 -37 -32 -51 -32 -78 -63 -101 -115 l-20 -44 -21 41 c-25 48 -79
105 -121 127 -17 9 -30 19 -30 23 0 4 18 17 40 30 37 21 120 113 120 133 0 16
6 10 44 -46z"/>
<path d="M2950 5515 c-20 -21 -24 -38 -28 -110 l-5 -85 -74 0 c-106 0 -143
-22 -143 -86 0 -63 51 -94 155 -94 l65 0 0 -52 c0 -109 32 -162 97 -162 26 0
42 7 59 28 21 24 24 37 24 107 l0 79 75 0 c81 0 127 16 145 49 18 35 11 71
-19 102 -28 27 -34 29 -114 29 l-85 0 -4 91 c-3 81 -6 93 -27 110 -34 28 -92
25 -121 -6z"/>
</g>
</svg>
